<svg xmlns="http://www.w3.org/2000/svg" viewBox="0 0 170.08 170.08"><defs><style>.cls-1{fill:#ed6d1c;}.cls-2{fill:#fff;}</style></defs><g id="Layer_2" data-name="Layer 2"><g id="Layer_1-2" data-name="Layer 1"><circle class="cls-1" cx="85.04" cy="85.04" r="85.04"/><path class="cls-2" d="M109.91,96.48c-3-9.31-11.45-23.27-11.45-23.27-.92-.72-1.77-1.31-2.55-1.82A13.51,13.51,0,0,0,93.36,70a8.52,8.52,0,0,0-2.4-.74,13,13,0,0,0-10.27,2.23,8.15,8.15,0,0,0-1.87,1.66,12.5,12.5,0,0,0-1.74,2.36c-.5.78-1,1.67-1.57,2.7,0,0-1.87,16.2-.79,25.94a19.49,19.49,0,0,0,.39,2.79,18.22,18.22,0,0,0,35.61-7.73A17.53,17.53,0,0,0,109.91,96.48ZM95.54,114.26a9.63,9.63,0,1,1,7.37-11.45A9.62,9.62,0,0,1,95.54,114.26Z"/><path class="cls-2" d="M85.71,39.4l-.3,0a9.83,9.83,0,0,0,0,19.66h.3a9.85,9.85,0,0,0,0-19.69Z"/><path class="cls-2" d="M85.71,9.85l-.3,0a9.83,9.83,0,0,0,0,19.66l.3,0a9.85,9.85,0,0,0,0-19.7Z"/></g></g></svg>